<svg width="85" height="77" viewBox="0 0 85 77" fill="none" xmlns="http://www.w3.org/2000/svg">
<path fill-rule="evenodd" clip-rule="evenodd" d="M43.1561 69.2285L46.6001 67.7892C46.4088 67.3038 45.8431 66.9691 45.1693 66.9691C44.3083 66.9649 43.1145 67.7306 43.1561 69.2285ZM47.1991 70.6219L48.5135 71.5005C48.0892 72.1323 47.0702 73.2202 45.3024 73.2202C43.1145 73.2202 41.5339 71.5173 41.5339 69.3457C41.5339 67.0402 43.127 65.4712 45.1152 65.4712C46.9412 65.534 48.0767 66.7181 48.5884 68.375L43.4307 70.5172C43.8258 71.2955 44.4372 71.693 45.2982 71.693C46.1551 71.693 46.754 71.2662 47.1908 70.6219M38.8303 72.9859H40.5232V61.6051H38.8303V72.9859ZM36.0684 69.3582C36.0684 67.9942 35.1617 66.9942 34.0095 66.9942C32.8449 66.9942 31.8632 67.9942 31.8632 69.3582C31.8632 70.7097 32.8407 71.693 34.0095 71.693C35.1658 71.693 36.0684 70.7097 36.0684 69.3582ZM37.5575 65.7055V72.6511C37.5575 75.5131 35.8813 76.6888 33.8972 76.6888C32.0296 76.6888 30.9066 75.4252 30.4823 74.4001L31.9548 73.785C32.2168 74.4168 32.8615 75.1658 33.8972 75.1658C35.7898 74.9495 35.9561 73.7181 35.9561 72.3332H35.8937C35.5152 72.8018 34.7832 73.216 33.8639 73.216C31.9381 73.216 30.1703 71.5298 30.1703 69.3541C30.1703 67.1658 31.934 65.4628 33.8639 65.4628C34.7832 65.4628 35.5152 65.8729 35.8937 66.3289H35.952V65.6971C35.952 65.693 37.5575 65.693 37.5575 65.693V65.7055ZM19.0896 69.3457C19.0896 67.9524 18.0996 66.9984 16.9558 66.9984C15.8078 66.9984 14.822 67.9524 14.822 69.3457C14.822 70.7265 15.812 71.693 16.9558 71.693C18.0996 71.693 19.0896 70.7223 19.0896 69.3457ZM20.7534 69.3457C20.7534 71.5758 19.048 73.2202 16.9558 73.2202C14.8636 73.2202 13.1582 71.5758 13.1582 69.3457C13.1582 67.0988 14.8636 65.4712 16.9558 65.4712C19.048 65.4712 20.7534 67.0988 20.7534 69.3457ZM27.6165 69.3457C27.6165 67.9524 26.6265 66.9984 25.4827 66.9984C24.3347 66.9984 23.3489 67.9524 23.3489 69.3457C23.3489 70.7265 24.3388 71.693 25.4827 71.693C26.6265 71.693 27.6165 70.7223 27.6165 69.3457ZM29.2802 69.3457C29.2802 71.5758 27.5749 73.2202 25.4827 73.2202C23.3905 73.2202 21.6851 71.5758 21.6851 69.3457C21.6851 67.0988 23.3905 65.4712 25.4827 65.4712C27.5749 65.4712 29.2802 67.0988 29.2802 69.3457ZM6.65286 73.2202C3.35859 73.2202 0.580078 70.5172 0.580078 67.1951C0.580078 63.877 3.35443 61.1699 6.65286 61.1699C8.47886 61.1699 9.77661 61.8896 10.7541 62.831L9.60191 63.99C8.90312 63.3289 7.95477 62.8143 6.65286 62.8143C4.24455 62.8143 2.36864 64.7683 2.36864 67.1658C2.36864 69.5884 4.25287 71.5172 6.65286 71.5172C8.21266 71.5172 9.10278 70.8854 9.67262 70.3122C10.1385 69.8436 10.4463 69.1658 10.5627 68.2411H6.65286V66.5967H12.1433C12.2016 66.8896 12.2307 67.2411 12.2307 67.6218C12.2307 68.8561 11.8938 70.3834 10.8165 71.467C9.76829 72.5758 8.42479 73.1658 6.65702 73.1658" fill="#5F6368"/>
<path d="M52.5635 72.9007V62.7832H53.8624L57.3554 68.9455H57.4081L60.9011 62.7832H62.2V72.9007H60.9015L60.9542 65.2022H60.9015L57.7595 70.7465H57.0048L53.8628 65.2022H53.8101C53.906 67.7629 53.8628 70.3404 53.8628 72.9007H52.5635ZM66.2547 73.0772C65.5175 73.0772 64.9207 72.8653 64.4292 72.4416C63.9377 72.0178 63.692 71.4528 63.692 70.7637C63.692 70.0045 63.9904 69.4218 64.5696 68.998C65.1489 68.5743 65.8685 68.3624 66.7111 68.3624C67.4658 68.3624 68.0977 68.5037 68.5717 68.7862C68.5591 67.3175 67.5501 66.9145 66.7637 66.9145C66.0213 66.95 65.3771 67.2623 65.1138 67.921L63.9377 67.4089C64.0957 67.0028 64.4116 66.6139 64.8856 66.2612C65.3595 65.9085 65.9739 65.7315 66.7462 65.7315C67.6238 65.7315 68.361 65.9964 68.9403 66.5084C69.5195 67.0205 69.8179 67.7621 69.8179 68.6979V72.8826H68.5892V71.9291C68.0152 72.653 67.2394 73.0609 66.2547 73.0768V73.0772ZM68.5717 69.8637C67.8152 69.2845 66.2371 69.2121 65.4999 69.8107C64.9207 70.3757 64.8592 71.1332 65.4648 71.5764C66.9287 72.521 68.6243 71.0502 68.5717 69.8637ZM74.8556 73.0772C74.329 73.0772 73.8551 72.9713 73.4514 72.7417C73.0476 72.5122 72.7317 72.2297 72.5211 71.8942H72.4509L72.5035 72.8477V75.9023H71.2222V65.9262H72.4509V66.8796H72.5035C72.7141 66.5441 73.0125 66.2616 73.4338 66.0321C73.8551 65.8026 74.329 65.6966 74.838 65.6966C75.7332 65.6966 76.488 66.0497 77.1375 66.756C77.7869 67.4623 78.1025 68.3452 78.1025 69.3869C78.1025 70.4287 77.7865 71.3115 77.1375 72.0178C76.5056 72.7241 75.7332 73.0772 74.8556 73.0772ZM74.645 71.8766C75.2418 71.8766 75.7508 71.647 76.1896 71.1879C76.6284 70.7288 76.8391 70.1285 76.8391 69.3693C76.8391 68.61 76.6284 68.0097 76.1896 67.5506C75.7508 67.0915 75.2418 66.862 74.645 66.862C74.0306 66.862 73.5216 67.0915 73.1003 67.5329C72.679 67.992 72.4684 68.5924 72.4684 69.3516C72.4684 70.1109 72.679 70.7288 73.1003 71.1703C73.5216 71.6647 74.0306 71.8766 74.645 71.8766ZM81.8767 73.0772C81.1044 73.0772 80.4725 72.883 79.981 72.5122C79.472 72.1414 79.1209 71.6647 78.8752 71.0996L80.0337 70.6229C80.4023 71.4881 81.0166 71.9295 81.8943 71.9295C82.298 71.9295 82.6315 71.8417 82.8772 71.6647C83.1405 71.4881 83.2634 71.2586 83.2634 70.9584C83.2634 70.4993 82.9475 70.1991 82.3156 70.0402L80.9289 69.7047C80.4901 69.5988 80.0688 69.3693 79.6826 69.0691C79.2965 68.7689 79.0858 68.3275 79.0858 67.7978C79.0858 67.1798 79.3491 66.6854 79.8933 66.3146C80.4374 65.9261 81.0693 65.7496 81.8065 65.7496C82.4209 65.7496 82.965 65.8908 83.4389 66.1733C83.9129 66.4559 84.2639 66.8443 84.457 67.374L83.3336 67.8331C83.0879 67.2151 82.5613 66.9149 81.7539 66.9149C81.3677 66.9149 81.0517 67.0028 80.7889 67.1621C80.526 67.3215 80.4027 67.5329 80.4027 67.8154C80.4027 68.2039 80.7011 68.4864 81.3155 68.6277L82.6846 68.9455C83.334 69.1044 83.808 69.3516 84.1239 69.7224C84.4399 70.0932 84.5803 70.4993 84.5803 70.9584C84.5803 71.5764 84.3345 72.1061 83.8255 72.5122C83.334 72.8653 82.6846 73.0772 81.8771 73.0772H81.8767Z" fill="#63666A"/>
<path d="M35.1699 38.7617C36.7464 40.745 38.3519 43.2387 39.1921 44.745C40.2153 46.7032 40.6396 48.0254 41.4008 50.3936C41.8458 51.6907 42.2701 52.084 43.1602 52.084C44.1335 52.084 44.5786 51.4229 44.9197 50.3936C45.6309 48.1718 46.18 46.4814 47.0493 44.8705C50.4018 38.5107 55.8673 33.9918 58.9453 27.7993C58.9453 27.7993 60.9709 24.0169 60.9709 18.7198C60.9709 13.7825 58.9744 10.3516 58.9744 10.3516L35.1824 38.8036L35.1699 38.7617Z" fill="#34A853"/>
<path d="M27.1004 27.1307C29.0179 31.524 32.6741 35.3734 35.1697 38.7625L48.3967 22.9884C48.3967 22.9884 46.5292 25.4486 43.1559 25.4486C39.3957 25.4486 36.3344 22.4361 36.3344 18.6285C36.3344 16.0093 37.8858 14.1934 37.8858 14.1934C28.1527 15.6494 28.6935 18.0218 27.0713 27.1223L27.1004 27.1307Z" fill="#FBBC04"/>
<path d="M48.5634 1.51172C52.9724 2.9385 56.7159 5.94689 58.962 10.3402L48.3971 23.0181C48.3971 23.0181 49.9485 21.1938 49.9485 18.5829C49.9485 14.6959 46.6875 11.7628 43.1686 11.7628C39.8286 11.7628 37.9277 14.1938 37.9277 14.1938C38.7388 12.336 47.1201 2.14352 48.5759 1.5159L48.5634 1.51172Z" fill="#4285F4"/>
<path d="M29.5146 7.0892C32.1434 3.94275 36.7521 0.6875 43.116 0.6875C46.1899 0.6875 48.5233 1.50759 48.5233 1.50759L37.9167 14.1855C37.2013 13.7951 30.2218 8.3277 29.5146 7.07247V7.0892Z" fill="#1A73E8"/>
<path d="M27.1027 27.131C27.1027 27.131 25.3682 23.6665 25.3682 18.679C25.3682 13.951 27.2066 9.8087 29.5276 7.13086L37.9297 14.2439L27.1151 27.131H27.1027Z" fill="#EA4335"/>
</svg>
