<svg width="38" height="64" viewBox="0 0 38 64" fill="none" xmlns="http://www.w3.org/2000/svg">
<path d="M13.4577 19.6875V9.66822H19.3548C22.3748 9.66822 23.7346 10.4984 23.7346 12.3591C23.7346 13.4183 23.205 14.134 22.0743 14.5204V14.6492C23.4197 14.9784 24.0495 15.7227 24.0495 16.925C24.0495 18.8287 22.7184 19.6875 19.6696 19.6875H13.4577ZM19.3118 11.4717H15.7335V13.862H19.3118C20.8004 13.862 21.4015 13.5042 21.4015 12.6597C21.4015 11.8152 20.7861 11.4717 19.3118 11.4717ZM19.641 15.3506H15.7335V17.884H19.641C21.1153 17.884 21.7308 17.5119 21.7308 16.6102C21.7308 15.7227 21.1153 15.3506 19.641 15.3506Z" fill="#75604B"/>
<circle cx="18.7969" cy="45.4705" r="17.8373" stroke="#75604B" stroke-width="0.759036"/>
<path d="M11.9658 55.4416C14.1258 48.6037 16.2923 41.7789 18.4718 34.8435L24.9779 55.4481V55.5261L23.4685 53.9517C21.9071 52.3057 20.3326 50.6661 18.7712 49.0006C18.5695 48.7794 18.4199 48.7664 18.2117 49.0006C16.1493 51.1931 14.0868 53.3531 12.0179 55.5066L11.9658 55.4416Z" fill="#7C6D5B"/>
</svg>
