<svg width="153" height="153" viewBox="0 0 153 153" fill="none" xmlns="http://www.w3.org/2000/svg">
<path d="M118.957 59.8083L118.367 58.5983L124.837 55.3983L122.307 50.2582L123.307 49.7383L126.437 56.0883L118.957 59.8083Z" fill="#009337"/>
<path d="M114.658 51.8907L113.898 50.7808L120.848 46.0508L121.608 47.1608L114.658 51.8907Z" fill="#009337"/>
<path d="M108.629 48.6296L107.629 47.5096L108.149 44.9697L108.909 45.7997L108.629 47.3697L108.889 47.6497L110.479 47.4997L111.229 48.3297L108.629 48.6296ZM112.559 48.7596L107.559 43.3697L108.429 42.5696L112.429 46.9697L114.069 45.4597L110.679 41.7697L111.539 40.9697L114.939 44.6697L116.879 42.8796L112.879 38.4797L113.739 37.6797L118.739 43.0696L112.559 48.7596Z" fill="#009337"/>
<path d="M106.266 42.1606L105.166 41.3906L104.556 33.3906L104.396 33.2806L100.836 38.2806L99.7461 37.5007L104.606 30.6406L105.696 31.4207L106.306 39.4207L106.476 39.5306L110.026 34.5306L111.126 35.3107L106.266 42.1606Z" fill="#009337"/>
<path d="M94.7971 35.0092L93.5171 34.5992L94.8871 30.3693H94.7771L88.457 32.9893L86.707 32.4193L92.1571 30.1992C90.3971 29.0292 90.3271 26.0792 89.1571 25.6992L88.1571 25.3892L88.5471 24.1992L89.7871 24.6093C91.7871 25.2393 91.287 28.7093 93.467 29.6093L95.337 28.8392L96.0671 26.5992L97.347 27.0092L94.7971 35.0092Z" fill="#009337"/>
<path d="M78.7474 33.41L77.2975 35.41L75.9375 35.28L77.6475 33.34L78.7474 33.41ZM84.6375 32.06L77.3474 31.36L77.4574 30.19L83.4574 30.7599L83.6775 28.54L78.6775 28.06L78.7875 26.89L83.7875 27.37L84.0375 24.74L78.0375 24.17L78.1475 23L85.4375 23.69L84.6375 32.06ZM81.6375 34.59L80.1274 34.45L78.8075 32.21L79.9275 32.3199L80.7775 33.68H81.1475L82.2374 32.5099L83.3474 32.61L81.6375 34.59Z" fill="#009337"/>
<path d="M72.2694 30.5601L76.3295 30.1101L76.4594 31.2801L66.9994 32.2801L66.8594 31.1101L70.9294 30.6601L70.1294 23.4801L71.4694 23.3301L72.2694 30.5601Z" fill="#009337"/>
<path d="M63.3684 33.2603L62.0485 33.8303L56.3484 28.4603L55.4684 28.8503V36.6804L54.1484 37.2504L54.2084 28.0703L56.5585 27.0703L63.3684 33.2603Z" fill="#009337"/>
<path d="M44.5869 38.2105L47.517 42.2105L46.447 43.0005L43.517 39.0605C42.147 37.2105 42.707 35.1605 44.737 33.6505C46.767 32.1405 48.897 32.1905 50.267 34.0405L53.197 37.9905L52.127 38.7905L49.187 34.7905C48.187 33.4605 46.747 33.5005 45.397 34.5005C44.047 35.5005 43.5969 36.8805 44.5869 38.2105ZM50.387 41.0505L52.8469 41.8305L51.757 42.6405L49.497 41.7005L50.387 41.0505Z" fill="#009337"/>
<path d="M44.9684 44.3509L44.0984 45.3509L36.0984 45.2309L35.9784 45.3809L40.6484 49.3809L39.7784 50.3809L33.3984 44.9209L34.2684 43.9209L42.2684 44.0409L42.3984 43.8809L37.7384 39.8809L38.6084 38.8809L44.9684 44.3509Z" fill="#009337"/>
<path d="M28.7594 55.329L31.6294 56.829L31.0094 58.019L27.3594 56.1191C27.7121 54.8244 28.2085 53.5733 28.8394 52.389C30.2494 49.699 32.6694 48.619 35.0294 49.849C37.3894 51.079 37.8994 53.679 36.4894 56.399C35.9571 57.5069 35.2849 58.5421 34.4894 59.479L33.4894 58.9391C34.3101 57.9841 35.012 56.9331 35.5795 55.8091C36.5795 53.8091 36.2494 51.9891 34.4594 51.0591C32.6694 50.1291 30.9394 50.919 29.8994 52.919C29.4708 53.6985 29.0901 54.5033 28.7594 55.329Z" fill="#009337"/>
<path d="M34.7174 93.9492L35.3175 95.1492L28.8374 98.3591L31.3875 103.499L30.3275 104.019L27.1875 97.6792L34.7174 93.9492Z" fill="#009337"/>
<path d="M39.016 101.852L39.776 102.962L32.8459 107.712L32.0859 106.602L39.016 101.852Z" fill="#009337"/>
<path d="M41.1152 104.969L46.1152 110.349L45.2552 111.139L41.2552 106.749L39.6152 108.269L43.0153 111.949L42.1453 112.749L38.7452 109.059L36.8053 110.849L40.8053 115.239L39.9453 116.039L34.9453 110.659L41.1152 104.969ZM45.0453 105.079L46.0453 106.199L45.5353 108.749L44.7753 107.919L45.0453 106.339L44.7953 106.069L43.2052 106.219L42.4453 105.399L45.0453 105.079Z" fill="#009337"/>
<path d="M47.4689 111.578L48.569 112.358L49.199 120.358L49.3589 120.468L52.8989 115.468L53.9989 116.248L49.1589 123.118L48.059 122.338L47.429 114.338L47.2689 114.218L43.7289 119.218L42.6289 118.438L47.4689 111.578Z" fill="#009337"/>
<path d="M58.9094 118.68L60.1895 119.1L58.8295 123.32H58.9395L65.2594 120.69L67.0094 121.25L61.5594 123.48C63.3194 124.65 63.3994 127.61 64.5594 127.98L65.5594 128.29L65.1694 129.48L63.9294 129.08C61.9294 128.45 62.4194 124.97 60.2394 124.08L58.3694 124.85L57.6394 127.11L56.3594 126.69L58.9094 118.68Z" fill="#009337"/>
<path d="M69.0691 121.632L76.359 122.312L76.249 123.482L70.249 122.922L70.0391 125.142L75.0391 125.612L74.9291 126.782L69.9291 126.312L69.6891 128.942L75.6891 129.502L75.5791 130.672L68.2891 129.992L69.0691 121.632ZM72.0691 119.082L73.589 119.232L74.9091 121.462L73.7891 121.352L72.9391 120.002H72.5691L71.489 121.182L70.369 121.082L72.0691 119.082ZM74.969 120.262L76.399 118.262L77.769 118.392L76.0691 120.392L74.969 120.262Z" fill="#009337"/>
<path d="M81.4464 123.161L77.4464 123.621L77.3164 122.451L86.7664 121.371L86.8964 122.541L82.8363 123.001L83.6564 130.181L82.3164 130.331L81.4464 123.161Z" fill="#009337"/>
<path d="M90.3359 120.389L91.656 119.809L97.366 125.179L98.246 124.789V116.949L99.566 116.379V125.569L97.2159 126.569L90.3359 120.389Z" fill="#009337"/>
<path d="M109.116 115.411L106.176 111.411L107.246 110.621L110.186 114.561C111.556 116.411 110.996 118.471 108.966 119.971C106.936 121.471 104.806 121.441 103.436 119.591L100.496 115.591L101.566 114.791L104.566 118.791C105.566 120.121 107.006 120.081 108.356 119.081C109.706 118.081 110.106 116.741 109.116 115.411ZM103.306 112.581L100.836 111.801L101.936 110.981L104.196 111.921L103.306 112.581Z" fill="#009337"/>
<path d="M108.727 109.259L109.607 108.259L117.607 108.359L117.737 108.219L113.047 104.219L113.927 103.219L120.307 108.669L119.437 109.669L111.437 109.569L111.307 109.719L115.977 113.719L115.107 114.719L108.727 109.259Z" fill="#009337"/>
<path d="M124.915 98.2611L122.035 96.7711L122.655 95.5812L126.305 97.4712C125.961 98.7702 125.468 100.025 124.835 101.211C123.435 103.901 121.005 104.981 118.645 103.761C116.285 102.541 115.765 99.9312 117.175 97.2112C117.708 96.1004 118.38 95.0619 119.175 94.1211L120.175 94.6611C119.358 95.6166 118.66 96.6676 118.095 97.7911C117.095 99.7911 117.435 101.611 119.225 102.541C121.015 103.471 122.745 102.681 123.785 100.681C124.213 99.8991 124.59 99.0908 124.915 98.2611Z" fill="#009337"/>
</svg>
